# xmcd CD database file
#
# Track frame offsets:
#	150
#	21481
#	37007
#	52641
#	86822
#	101972
#	117262
#	137326
#	164130
#	186236
#	213958
#	215644
#
# Disc length: 3011 seconds
#
# Revision: 0
# Processed by: cddbd v1.5.2PL0 Copyright (c) Steve Scherf et al.
# Submitted via: CDex 1.51
#
DISCID=b10bc10c
DTITLE=Horst Biewald - boarisch groove
DYEAR=2008
DGENRE=Blues
TTITLE0=Boarisch Groove
TTITLE1=Chiemgau Reggae
TTITLE2=Auf und davo
TTITLE3=Natural high
TTITLE4=Die Musi
TTITLE5=Logga
TTITLE6=A ganz Liabe
TTITLE7=We gotta get it
TTITLE8=Computer Ragtime
TTITLE9=Heisl Blues
TTITLE10=AB Song
TTITLE11=Boarisch Capella
EXTD=YEAR: 2008
EXTT0=
EXTT1=
EXTT2=
EXTT3=
EXTT4=
EXTT5=
EXTT6=
EXTT7=
EXTT8=
EXTT9=
EXTT10=
EXTT11=
PLAYORDER=
